# xmcd CD database file
#
# Track frame offsets:
#	150
#	13600
#	33856
#	50228
#	65124
#	81310
#	96337
#	113555
#	124336
#	136760
#	148105
#	164598
#	175264
#	200844
#	214590
#	228862
#	240201
#	253698
#
# Disc length: 3558 seconds
#
# Revision: 0
# Processed by: cddbd v1.4PL0 Copyright (c) Steve Scherf et al.
# Submitted via: CDex 1.50beta10
#
DISCID=040de412
DTITLE=Juke Boy Bonner - Ghetto Poet
DYEAR=2003
DGENRE=Blues
TTITLE0=Daylight Won't Catch Me Here
TTITLE1=The Animal Gap
TTITLE2=Time To Say Goodbye
TTITLE3=Blues For Elmo
TTITLE4=If I Sound Lowdown
TTITLE5=Sportsman's Luck
TTITLE6=California Here I Come
TTITLE7=Zodico Jump
TTITLE8=Gtting Up From The Ground
TTITLE9=Houston Beat
TTITLE10=What Will I Tell The Children
TTITLE11=All The Lonely Days
TTITLE12=Childhood Dreams
TTITLE13=Settin' The Record Straight
TTITLE14=Rainin' In My Room
TTITLE15=Let Me Run It Down To You
TTITLE16=I Don't Go For Games
TTITLE17=It's Enough
EXTD=YEAR: 2003
EXTT0=
EXTT1=
EXTT2=
EXTT3=
EXTT4=
EXTT5=
EXTT6=
EXTT7=
EXTT8=
EXTT9=
EXTT10=
EXTT11=
EXTT12=
EXTT13=
EXTT14=
EXTT15=
EXTT16=
EXTT17=
PLAYORDER=
